<mxfile host="app.diagrams.net" modified="2023-09-13T17:43:52.404Z" agent="Mozilla/5.0 (Windows NT 10.0; Win64; x64) AppleWebKit/537.36 (KHTML, like Gecko) Chrome/116.0.0.0 Safari/537.36" etag="_DOnnMCQPv2NUr5sK4BE" version="21.7.4" type="github">
  <diagram name="第 1 页" id="Cvnru_8ZgVQWGcG2YRoV">
    <mxGraphModel dx="1553" dy="455" grid="0" gridSize="10" guides="1" tooltips="1" connect="1" arrows="1" fold="1" page="0" pageScale="1" pageWidth="827" pageHeight="1169" math="0" shadow="0">
      <root>
        <mxCell id="0" />
        <mxCell id="1" parent="0" />
        <mxCell id="6ESn1KodmGU27KJJrDq7-166" style="edgeStyle=orthogonalEdgeStyle;rounded=0;orthogonalLoop=1;jettySize=auto;html=1;entryX=0.5;entryY=0;entryDx=0;entryDy=0;" edge="1" parent="1" source="jyO5-WvrYrrkGgKPPHPB-2" target="jyO5-WvrYrrkGgKPPHPB-272">
          <mxGeometry relative="1" as="geometry">
            <Array as="points">
              <mxPoint x="622" y="488" />
              <mxPoint x="275" y="488" />
            </Array>
          </mxGeometry>
        </mxCell>
        <mxCell id="6ESn1KodmGU27KJJrDq7-167" style="edgeStyle=orthogonalEdgeStyle;rounded=0;orthogonalLoop=1;jettySize=auto;html=1;" edge="1" parent="1" source="jyO5-WvrYrrkGgKPPHPB-2" target="jyO5-WvrYrrkGgKPPHPB-273">
          <mxGeometry relative="1" as="geometry">
            <Array as="points">
              <mxPoint x="622" y="489" />
              <mxPoint x="527" y="489" />
            </Array>
          </mxGeometry>
        </mxCell>
        <mxCell id="6ESn1KodmGU27KJJrDq7-168" style="edgeStyle=orthogonalEdgeStyle;rounded=0;orthogonalLoop=1;jettySize=auto;html=1;entryX=0.5;entryY=0;entryDx=0;entryDy=0;" edge="1" parent="1" source="jyO5-WvrYrrkGgKPPHPB-2" target="jyO5-WvrYrrkGgKPPHPB-275">
          <mxGeometry relative="1" as="geometry">
            <Array as="points">
              <mxPoint x="622" y="489" />
              <mxPoint x="789" y="489" />
            </Array>
          </mxGeometry>
        </mxCell>
        <mxCell id="6ESn1KodmGU27KJJrDq7-169" style="edgeStyle=orthogonalEdgeStyle;rounded=0;orthogonalLoop=1;jettySize=auto;html=1;entryX=0.5;entryY=0;entryDx=0;entryDy=0;" edge="1" parent="1" source="jyO5-WvrYrrkGgKPPHPB-2" target="jyO5-WvrYrrkGgKPPHPB-274">
          <mxGeometry relative="1" as="geometry">
            <Array as="points">
              <mxPoint x="622" y="489" />
              <mxPoint x="1044" y="489" />
            </Array>
          </mxGeometry>
        </mxCell>
        <mxCell id="jyO5-WvrYrrkGgKPPHPB-2" value="开始" style="ellipse;whiteSpace=wrap;html=1;" parent="1" vertex="1">
          <mxGeometry x="587" y="424" width="70" height="42" as="geometry" />
        </mxCell>
        <mxCell id="jyO5-WvrYrrkGgKPPHPB-25" value="&lt;font style=&quot;font-size: 14px;&quot;&gt;电气火灾风险监测&lt;/font&gt;" style="text;html=1;align=center;verticalAlign=middle;resizable=0;points=[];autosize=1;strokeColor=none;fillColor=none;" parent="1" vertex="1">
          <mxGeometry x="2" y="576" width="130" height="29" as="geometry" />
        </mxCell>
        <mxCell id="jyO5-WvrYrrkGgKPPHPB-27" value="&lt;font style=&quot;font-size: 14px;&quot;&gt;电气火灾风险研判&lt;/font&gt;" style="text;html=1;align=center;verticalAlign=middle;resizable=0;points=[];autosize=1;strokeColor=none;fillColor=none;" parent="1" vertex="1">
          <mxGeometry x="-1" y="742" width="130" height="29" as="geometry" />
        </mxCell>
        <mxCell id="jyO5-WvrYrrkGgKPPHPB-35" value="主管部门评估风险的严重性" style="rounded=0;whiteSpace=wrap;html=1;" parent="1" vertex="1">
          <mxGeometry x="177" y="1044.5" width="211" height="33" as="geometry" />
        </mxCell>
        <mxCell id="jyO5-WvrYrrkGgKPPHPB-38" value="&lt;font style=&quot;font-size: 14px;&quot;&gt;电气火灾风险预警&lt;/font&gt;" style="text;html=1;align=center;verticalAlign=middle;resizable=0;points=[];autosize=1;strokeColor=none;fillColor=none;" parent="1" vertex="1">
          <mxGeometry x="-1" y="1097" width="130" height="29" as="geometry" />
        </mxCell>
        <mxCell id="6ESn1KodmGU27KJJrDq7-217" style="edgeStyle=orthogonalEdgeStyle;rounded=0;orthogonalLoop=1;jettySize=auto;html=1;" edge="1" parent="1" source="jyO5-WvrYrrkGgKPPHPB-43">
          <mxGeometry relative="1" as="geometry">
            <mxPoint x="281" y="1375.8771715666119" as="targetPoint" />
          </mxGeometry>
        </mxCell>
        <mxCell id="jyO5-WvrYrrkGgKPPHPB-43" value="牵头部门下发整改通知书" style="rounded=0;whiteSpace=wrap;html=1;" parent="1" vertex="1">
          <mxGeometry x="174.5" y="1281" width="213" height="36" as="geometry" />
        </mxCell>
        <mxCell id="jyO5-WvrYrrkGgKPPHPB-46" value="&lt;font style=&quot;font-size: 14px;&quot;&gt;电气火灾风险处置&lt;/font&gt;" style="text;html=1;align=center;verticalAlign=middle;resizable=0;points=[];autosize=1;strokeColor=none;fillColor=none;" parent="1" vertex="1">
          <mxGeometry x="-1" y="1330" width="130" height="29" as="geometry" />
        </mxCell>
        <mxCell id="jyO5-WvrYrrkGgKPPHPB-51" value="" style="edgeStyle=orthogonalEdgeStyle;rounded=0;orthogonalLoop=1;jettySize=auto;html=1;" parent="1" edge="1">
          <mxGeometry relative="1" as="geometry">
            <mxPoint x="274" y="1740" as="targetPoint" />
          </mxGeometry>
        </mxCell>
        <mxCell id="jyO5-WvrYrrkGgKPPHPB-58" value="结束" style="ellipse;whiteSpace=wrap;html=1;" parent="1" vertex="1">
          <mxGeometry x="481" y="1704" width="62" height="40" as="geometry" />
        </mxCell>
        <mxCell id="jyO5-WvrYrrkGgKPPHPB-62" value="开始" style="ellipse;whiteSpace=wrap;html=1;" parent="1" vertex="1">
          <mxGeometry x="1802" y="439.5" width="62" height="40" as="geometry" />
        </mxCell>
        <mxCell id="jyO5-WvrYrrkGgKPPHPB-64" value="" style="edgeStyle=orthogonalEdgeStyle;rounded=0;orthogonalLoop=1;jettySize=auto;html=1;" parent="1" source="jyO5-WvrYrrkGgKPPHPB-65" target="jyO5-WvrYrrkGgKPPHPB-67" edge="1">
          <mxGeometry relative="1" as="geometry" />
        </mxCell>
        <mxCell id="jyO5-WvrYrrkGgKPPHPB-65" value="安装超前预警设备" style="rounded=0;whiteSpace=wrap;html=1;fillColor=#fff2cc;strokeColor=#d6b656;" parent="1" vertex="1">
          <mxGeometry x="1748" y="504.5" width="170" height="30" as="geometry" />
        </mxCell>
        <mxCell id="jyO5-WvrYrrkGgKPPHPB-108" style="edgeStyle=orthogonalEdgeStyle;rounded=0;orthogonalLoop=1;jettySize=auto;html=1;entryX=0.5;entryY=0;entryDx=0;entryDy=0;" parent="1" source="jyO5-WvrYrrkGgKPPHPB-67" target="jyO5-WvrYrrkGgKPPHPB-70" edge="1">
          <mxGeometry relative="1" as="geometry" />
        </mxCell>
        <mxCell id="jyO5-WvrYrrkGgKPPHPB-67" value="触发电气火灾预警" style="rounded=0;whiteSpace=wrap;html=1;fillColor=#fff2cc;strokeColor=#d6b656;" parent="1" vertex="1">
          <mxGeometry x="1748" y="569.5" width="170" height="30" as="geometry" />
        </mxCell>
        <mxCell id="jyO5-WvrYrrkGgKPPHPB-70" value="自动下达&lt;span style=&quot;background-color: initial;&quot;&gt;预警信息&lt;/span&gt;" style="rounded=0;whiteSpace=wrap;html=1;fillColor=#fff2cc;strokeColor=#d6b656;" parent="1" vertex="1">
          <mxGeometry x="1748" y="634.5" width="170" height="30" as="geometry" />
        </mxCell>
        <mxCell id="jyO5-WvrYrrkGgKPPHPB-73" value="" style="edgeStyle=orthogonalEdgeStyle;rounded=0;orthogonalLoop=1;jettySize=auto;html=1;" parent="1" source="jyO5-WvrYrrkGgKPPHPB-74" target="jyO5-WvrYrrkGgKPPHPB-76" edge="1">
          <mxGeometry relative="1" as="geometry" />
        </mxCell>
        <mxCell id="jyO5-WvrYrrkGgKPPHPB-74" value="自动研判故障原因" style="rounded=0;whiteSpace=wrap;html=1;fillColor=#d5e8d4;strokeColor=#82b366;" parent="1" vertex="1">
          <mxGeometry x="1748" y="695.5" width="170" height="30" as="geometry" />
        </mxCell>
        <mxCell id="jyO5-WvrYrrkGgKPPHPB-75" value="" style="edgeStyle=orthogonalEdgeStyle;rounded=0;orthogonalLoop=1;jettySize=auto;html=1;" parent="1" source="jyO5-WvrYrrkGgKPPHPB-76" target="jyO5-WvrYrrkGgKPPHPB-77" edge="1">
          <mxGeometry relative="1" as="geometry" />
        </mxCell>
        <mxCell id="jyO5-WvrYrrkGgKPPHPB-76" value="自动研判事故等级" style="rounded=0;whiteSpace=wrap;html=1;fillColor=#d5e8d4;strokeColor=#82b366;" parent="1" vertex="1">
          <mxGeometry x="1748" y="755.5" width="170" height="30" as="geometry" />
        </mxCell>
        <mxCell id="jyO5-WvrYrrkGgKPPHPB-249" style="edgeStyle=orthogonalEdgeStyle;rounded=0;orthogonalLoop=1;jettySize=auto;html=1;entryX=0.5;entryY=0;entryDx=0;entryDy=0;" parent="1" source="jyO5-WvrYrrkGgKPPHPB-77" target="jyO5-WvrYrrkGgKPPHPB-247" edge="1">
          <mxGeometry relative="1" as="geometry" />
        </mxCell>
        <mxCell id="jyO5-WvrYrrkGgKPPHPB-77" value="自动研判处置方案" style="rounded=0;whiteSpace=wrap;html=1;fillColor=#d5e8d4;strokeColor=#82b366;" parent="1" vertex="1">
          <mxGeometry x="1748" y="815.5" width="170" height="30" as="geometry" />
        </mxCell>
        <mxCell id="jyO5-WvrYrrkGgKPPHPB-79" value="&lt;font style=&quot;&quot;&gt;&lt;font style=&quot;font-size: 14px;&quot;&gt;电气火灾风险监测&lt;/font&gt;&lt;br&gt;（人工监测变为智能设备自动监测）&lt;br&gt;&lt;/font&gt;" style="text;html=1;align=center;verticalAlign=middle;resizable=0;points=[];autosize=1;strokeColor=none;fillColor=none;" parent="1" vertex="1">
          <mxGeometry x="1422" y="519" width="210" height="43" as="geometry" />
        </mxCell>
        <mxCell id="jyO5-WvrYrrkGgKPPHPB-81" value="&lt;font style=&quot;font-size: 14px;&quot;&gt;电气火灾风险研判&lt;br&gt;（&lt;/font&gt;&lt;font style=&quot;&quot;&gt;&lt;font style=&quot;font-size: 12px;&quot;&gt;人工操作变为平台系统自动化研判&lt;/font&gt;&lt;span style=&quot;font-size: 14px;&quot;&gt;）&lt;/span&gt;&lt;br&gt;&lt;/font&gt;" style="text;html=1;align=center;verticalAlign=middle;resizable=0;points=[];autosize=1;strokeColor=none;fillColor=none;" parent="1" vertex="1">
          <mxGeometry x="1417" y="755.5" width="226" height="46" as="geometry" />
        </mxCell>
        <mxCell id="jyO5-WvrYrrkGgKPPHPB-89" value="&lt;font style=&quot;font-size: 14px;&quot;&gt;电气火灾风险预警&lt;/font&gt;" style="text;html=1;align=center;verticalAlign=middle;resizable=0;points=[];autosize=1;strokeColor=none;fillColor=none;" parent="1" vertex="1">
          <mxGeometry x="1448" y="938" width="140" height="30" as="geometry" />
        </mxCell>
        <mxCell id="jyO5-WvrYrrkGgKPPHPB-90" style="edgeStyle=orthogonalEdgeStyle;rounded=0;orthogonalLoop=1;jettySize=auto;html=1;" parent="1" source="jyO5-WvrYrrkGgKPPHPB-70" target="jyO5-WvrYrrkGgKPPHPB-74" edge="1">
          <mxGeometry relative="1" as="geometry" />
        </mxCell>
        <mxCell id="jyO5-WvrYrrkGgKPPHPB-92" value="" style="edgeStyle=orthogonalEdgeStyle;rounded=0;orthogonalLoop=1;jettySize=auto;html=1;" parent="1" edge="1">
          <mxGeometry relative="1" as="geometry">
            <mxPoint x="1032.5" y="1390" as="sourcePoint" />
          </mxGeometry>
        </mxCell>
        <mxCell id="jyO5-WvrYrrkGgKPPHPB-170" value="" style="edgeStyle=orthogonalEdgeStyle;rounded=0;orthogonalLoop=1;jettySize=auto;html=1;" parent="1" edge="1">
          <mxGeometry relative="1" as="geometry">
            <mxPoint x="1032" y="1450" as="sourcePoint" />
          </mxGeometry>
        </mxCell>
        <mxCell id="jyO5-WvrYrrkGgKPPHPB-96" value="&lt;font style=&quot;font-size: 14px;&quot;&gt;电气火灾风险处置&lt;/font&gt;" style="text;html=1;align=center;verticalAlign=middle;resizable=0;points=[];autosize=1;strokeColor=none;fillColor=none;" parent="1" vertex="1">
          <mxGeometry x="1448" y="1089" width="140" height="30" as="geometry" />
        </mxCell>
        <mxCell id="jyO5-WvrYrrkGgKPPHPB-179" value="&lt;p style=&quot;margin-top: 0pt; margin-bottom: 0pt; margin-left: 0in; direction: ltr; unicode-bidi: embed; word-break: normal;&quot;&gt;&lt;font style=&quot;font-size: 25px;&quot;&gt;电气火灾预防治理原业务流程图&lt;/font&gt;&lt;/p&gt;" style="html=1;shadow=0;dashed=0;align=center;verticalAlign=middle;shape=mxgraph.arrows2.arrow;dy=0;dx=30;notch=30;fillColor=#f8cecc;strokeColor=#b85450;" parent="1" vertex="1">
          <mxGeometry x="63" y="330" width="885" height="70" as="geometry" />
        </mxCell>
        <mxCell id="jyO5-WvrYrrkGgKPPHPB-180" value="&lt;p style=&quot;margin-top: 0pt; margin-bottom: 0pt; margin-left: 0in; direction: ltr; unicode-bidi: embed; word-break: normal;&quot;&gt;&lt;font style=&quot;font-size: 25px;&quot;&gt;电气火灾预防治理新业务流程图&lt;/font&gt;&lt;/p&gt;" style="html=1;shadow=0;dashed=0;align=center;verticalAlign=middle;shape=mxgraph.arrows2.arrow;dy=0;dx=30;notch=30;fillColor=#f8cecc;strokeColor=#b85450;" parent="1" vertex="1">
          <mxGeometry x="1516" y="324" width="620" height="70" as="geometry" />
        </mxCell>
        <mxCell id="6ESn1KodmGU27KJJrDq7-130" style="edgeStyle=orthogonalEdgeStyle;rounded=0;orthogonalLoop=1;jettySize=auto;html=1;entryX=0;entryY=0.5;entryDx=0;entryDy=0;" edge="1" parent="1" source="jyO5-WvrYrrkGgKPPHPB-188" target="jyO5-WvrYrrkGgKPPHPB-58">
          <mxGeometry relative="1" as="geometry">
            <Array as="points">
              <mxPoint x="295" y="1724" />
            </Array>
          </mxGeometry>
        </mxCell>
        <mxCell id="jyO5-WvrYrrkGgKPPHPB-188" value="总结说明" style="rounded=0;whiteSpace=wrap;html=1;" parent="1" vertex="1">
          <mxGeometry x="177" y="1634" width="217" height="30" as="geometry" />
        </mxCell>
        <mxCell id="jyO5-WvrYrrkGgKPPHPB-220" value="企事业单位自行整改" style="rounded=0;whiteSpace=wrap;html=1;" parent="1" vertex="1">
          <mxGeometry x="1658" y="1074" width="144" height="60" as="geometry" />
        </mxCell>
        <mxCell id="jyO5-WvrYrrkGgKPPHPB-264" style="edgeStyle=orthogonalEdgeStyle;rounded=0;orthogonalLoop=1;jettySize=auto;html=1;entryX=1;entryY=0.5;entryDx=0;entryDy=0;" parent="1" source="jyO5-WvrYrrkGgKPPHPB-221" target="jyO5-WvrYrrkGgKPPHPB-247" edge="1">
          <mxGeometry relative="1" as="geometry">
            <Array as="points">
              <mxPoint x="2108" y="1104" />
              <mxPoint x="2108" y="928" />
            </Array>
          </mxGeometry>
        </mxCell>
        <mxCell id="jyO5-WvrYrrkGgKPPHPB-221" value="县消防大队、县应急局等相关主管部门，供电部门" style="rounded=0;whiteSpace=wrap;html=1;" parent="1" vertex="1">
          <mxGeometry x="1888" y="1074" width="130" height="60" as="geometry" />
        </mxCell>
        <mxCell id="jyO5-WvrYrrkGgKPPHPB-223" value="" style="endArrow=none;dashed=1;html=1;dashPattern=1 3;strokeWidth=2;rounded=0;" parent="1" edge="1">
          <mxGeometry width="50" height="50" relative="1" as="geometry">
            <mxPoint x="1648" y="1216" as="sourcePoint" />
            <mxPoint x="1648" y="439" as="targetPoint" />
          </mxGeometry>
        </mxCell>
        <mxCell id="jyO5-WvrYrrkGgKPPHPB-227" value="" style="endArrow=none;dashed=1;html=1;rounded=0;" parent="1" edge="1">
          <mxGeometry width="50" height="50" relative="1" as="geometry">
            <mxPoint x="1508" y="1030" as="sourcePoint" />
            <mxPoint x="2204" y="1030" as="targetPoint" />
          </mxGeometry>
        </mxCell>
        <mxCell id="jyO5-WvrYrrkGgKPPHPB-228" value="&lt;span style=&quot;color: rgb(0, 0, 0); font-family: Helvetica; font-size: 12px; font-style: normal; font-variant-ligatures: normal; font-variant-caps: normal; font-weight: 400; letter-spacing: normal; orphans: 2; text-align: center; text-indent: 0px; text-transform: none; widows: 2; word-spacing: 0px; -webkit-text-stroke-width: 0px; background-color: rgb(251, 251, 251); text-decoration-thickness: initial; text-decoration-style: initial; text-decoration-color: initial; float: none; display: inline !important;&quot;&gt;自动报送预警信息&lt;/span&gt;" style="text;whiteSpace=wrap;html=1;" parent="1" vertex="1">
          <mxGeometry x="1838" y="845.5" width="60" height="40" as="geometry" />
        </mxCell>
        <mxCell id="jyO5-WvrYrrkGgKPPHPB-230" value="" style="endArrow=classic;html=1;rounded=0;" parent="1" edge="1">
          <mxGeometry width="50" height="50" relative="1" as="geometry">
            <mxPoint x="1808" y="1094" as="sourcePoint" />
            <mxPoint x="1884" y="1094" as="targetPoint" />
            <Array as="points">
              <mxPoint x="1838" y="1094" />
            </Array>
          </mxGeometry>
        </mxCell>
        <mxCell id="jyO5-WvrYrrkGgKPPHPB-233" value="" style="endArrow=classic;html=1;rounded=0;" parent="1" edge="1">
          <mxGeometry width="50" height="50" relative="1" as="geometry">
            <mxPoint x="1884" y="1117" as="sourcePoint" />
            <mxPoint x="1808" y="1117" as="targetPoint" />
          </mxGeometry>
        </mxCell>
        <mxCell id="jyO5-WvrYrrkGgKPPHPB-235" value="上报整改&lt;br&gt;结果" style="text;html=1;align=center;verticalAlign=middle;resizable=0;points=[];autosize=1;strokeColor=none;fillColor=none;" parent="1" vertex="1">
          <mxGeometry x="1808" y="1060" width="70" height="40" as="geometry" />
        </mxCell>
        <mxCell id="jyO5-WvrYrrkGgKPPHPB-236" value="整改监督" style="text;html=1;align=center;verticalAlign=middle;resizable=0;points=[];autosize=1;strokeColor=none;fillColor=none;" parent="1" vertex="1">
          <mxGeometry x="1808" y="1120" width="70" height="30" as="geometry" />
        </mxCell>
        <mxCell id="jyO5-WvrYrrkGgKPPHPB-243" value="" style="endArrow=classic;html=1;rounded=0;" parent="1" source="jyO5-WvrYrrkGgKPPHPB-62" edge="1">
          <mxGeometry width="50" height="50" relative="1" as="geometry">
            <mxPoint x="1774" y="556.5" as="sourcePoint" />
            <mxPoint x="1833" y="506.5" as="targetPoint" />
          </mxGeometry>
        </mxCell>
        <mxCell id="jyO5-WvrYrrkGgKPPHPB-258" style="edgeStyle=orthogonalEdgeStyle;rounded=0;orthogonalLoop=1;jettySize=auto;html=1;entryX=0.5;entryY=0;entryDx=0;entryDy=0;" parent="1" source="jyO5-WvrYrrkGgKPPHPB-247" target="jyO5-WvrYrrkGgKPPHPB-220" edge="1">
          <mxGeometry relative="1" as="geometry" />
        </mxCell>
        <mxCell id="jyO5-WvrYrrkGgKPPHPB-259" style="edgeStyle=orthogonalEdgeStyle;rounded=0;orthogonalLoop=1;jettySize=auto;html=1;" parent="1" source="jyO5-WvrYrrkGgKPPHPB-247" target="jyO5-WvrYrrkGgKPPHPB-221" edge="1">
          <mxGeometry relative="1" as="geometry" />
        </mxCell>
        <mxCell id="jyO5-WvrYrrkGgKPPHPB-247" value="巫山县城市运行和治理中心" style="rounded=0;whiteSpace=wrap;html=1;" parent="1" vertex="1">
          <mxGeometry x="1748" y="912.5" width="170" height="30" as="geometry" />
        </mxCell>
        <mxCell id="jyO5-WvrYrrkGgKPPHPB-260" value="整改通知" style="text;html=1;align=center;verticalAlign=middle;resizable=0;points=[];autosize=1;strokeColor=none;fillColor=none;" parent="1" vertex="1">
          <mxGeometry x="1833" y="968" width="70" height="30" as="geometry" />
        </mxCell>
        <mxCell id="jyO5-WvrYrrkGgKPPHPB-265" value="整改结束" style="text;html=1;align=center;verticalAlign=middle;resizable=0;points=[];autosize=1;strokeColor=none;fillColor=none;" parent="1" vertex="1">
          <mxGeometry x="2103" y="988" width="70" height="30" as="geometry" />
        </mxCell>
        <mxCell id="jyO5-WvrYrrkGgKPPHPB-267" value="" style="endArrow=none;dashed=1;html=1;rounded=0;" parent="1" edge="1">
          <mxGeometry width="50" height="50" relative="1" as="geometry">
            <mxPoint x="1498" y="885.5" as="sourcePoint" />
            <mxPoint x="2194" y="885" as="targetPoint" />
          </mxGeometry>
        </mxCell>
        <mxCell id="jyO5-WvrYrrkGgKPPHPB-268" value="" style="endArrow=none;dashed=1;html=1;rounded=0;" parent="1" edge="1">
          <mxGeometry width="50" height="50" relative="1" as="geometry">
            <mxPoint x="1495" y="679.41" as="sourcePoint" />
            <mxPoint x="2191" y="679.41" as="targetPoint" />
          </mxGeometry>
        </mxCell>
        <mxCell id="6ESn1KodmGU27KJJrDq7-46" style="edgeStyle=orthogonalEdgeStyle;rounded=0;orthogonalLoop=1;jettySize=auto;html=1;entryX=1;entryY=0.5;entryDx=0;entryDy=0;" edge="1" parent="1" source="jyO5-WvrYrrkGgKPPHPB-269" target="jyO5-WvrYrrkGgKPPHPB-74">
          <mxGeometry relative="1" as="geometry">
            <Array as="points">
              <mxPoint x="2056" y="710.5" />
            </Array>
          </mxGeometry>
        </mxCell>
        <mxCell id="jyO5-WvrYrrkGgKPPHPB-269" value="整合已有系统电气数据" style="rounded=0;whiteSpace=wrap;html=1;fillColor=#fff2cc;strokeColor=#d6b656;" parent="1" vertex="1">
          <mxGeometry x="1956" y="570" width="170" height="30" as="geometry" />
        </mxCell>
        <mxCell id="6ESn1KodmGU27KJJrDq7-102" value="" style="edgeStyle=orthogonalEdgeStyle;rounded=0;orthogonalLoop=1;jettySize=auto;html=1;entryX=0.5;entryY=0;entryDx=0;entryDy=0;" edge="1" parent="1" source="jyO5-WvrYrrkGgKPPHPB-272" target="6ESn1KodmGU27KJJrDq7-48">
          <mxGeometry relative="1" as="geometry">
            <mxPoint x="275" y="691" as="targetPoint" />
          </mxGeometry>
        </mxCell>
        <mxCell id="jyO5-WvrYrrkGgKPPHPB-272" value="群众发现电气风险现象&lt;br&gt;" style="rounded=0;whiteSpace=wrap;html=1;" parent="1" vertex="1">
          <mxGeometry x="171" y="543.5" width="208" height="50.5" as="geometry" />
        </mxCell>
        <mxCell id="jyO5-WvrYrrkGgKPPHPB-273" value="企事业单位定期自查" style="rounded=0;whiteSpace=wrap;html=1;" parent="1" vertex="1">
          <mxGeometry x="425" y="541.38" width="210.5" height="51" as="geometry" />
        </mxCell>
        <mxCell id="6ESn1KodmGU27KJJrDq7-273" style="edgeStyle=orthogonalEdgeStyle;rounded=0;orthogonalLoop=1;jettySize=auto;html=1;entryX=0.5;entryY=0;entryDx=0;entryDy=0;" edge="1" parent="1" source="jyO5-WvrYrrkGgKPPHPB-274" target="6ESn1KodmGU27KJJrDq7-257">
          <mxGeometry relative="1" as="geometry" />
        </mxCell>
        <mxCell id="jyO5-WvrYrrkGgKPPHPB-274" value="供电部门日常巡查" style="rounded=0;whiteSpace=wrap;html=1;" parent="1" vertex="1">
          <mxGeometry x="955.3" y="542.63" width="178" height="49.75" as="geometry" />
        </mxCell>
        <mxCell id="6ESn1KodmGU27KJJrDq7-203" style="edgeStyle=orthogonalEdgeStyle;rounded=0;orthogonalLoop=1;jettySize=auto;html=1;" edge="1" parent="1" source="jyO5-WvrYrrkGgKPPHPB-275">
          <mxGeometry relative="1" as="geometry">
            <mxPoint x="788.5" y="897.0513446514422" as="targetPoint" />
          </mxGeometry>
        </mxCell>
        <mxCell id="jyO5-WvrYrrkGgKPPHPB-275" value="主管部门专项检查" style="rounded=0;whiteSpace=wrap;html=1;" parent="1" vertex="1">
          <mxGeometry x="698.95" y="538" width="182" height="51.25" as="geometry" />
        </mxCell>
        <mxCell id="jyO5-WvrYrrkGgKPPHPB-276" value="" style="endArrow=none;dashed=1;html=1;dashPattern=1 3;strokeWidth=2;rounded=0;" parent="1" edge="1">
          <mxGeometry width="50" height="50" relative="1" as="geometry">
            <mxPoint x="139" y="1883" as="sourcePoint" />
            <mxPoint x="143" y="447" as="targetPoint" />
          </mxGeometry>
        </mxCell>
        <mxCell id="jyO5-WvrYrrkGgKPPHPB-277" value="" style="endArrow=none;dashed=1;html=1;rounded=0;" parent="1" edge="1">
          <mxGeometry width="50" height="50" relative="1" as="geometry">
            <mxPoint x="-33" y="668" as="sourcePoint" />
            <mxPoint x="962" y="668" as="targetPoint" />
          </mxGeometry>
        </mxCell>
        <mxCell id="jyO5-WvrYrrkGgKPPHPB-284" value="" style="endArrow=none;dashed=1;html=1;rounded=0;" parent="1" edge="1">
          <mxGeometry width="50" height="50" relative="1" as="geometry">
            <mxPoint x="-27" y="1010" as="sourcePoint" />
            <mxPoint x="1192" y="1010" as="targetPoint" />
          </mxGeometry>
        </mxCell>
        <mxCell id="jyO5-WvrYrrkGgKPPHPB-285" value="" style="endArrow=none;dashed=1;html=1;rounded=0;" parent="1" edge="1">
          <mxGeometry width="50" height="50" relative="1" as="geometry">
            <mxPoint x="-30" y="1214" as="sourcePoint" />
            <mxPoint x="1230" y="1211" as="targetPoint" />
          </mxGeometry>
        </mxCell>
        <mxCell id="jyO5-WvrYrrkGgKPPHPB-295" value="&lt;font style=&quot;font-size: 22px;&quot;&gt;创&lt;br&gt;新&lt;br&gt;环&lt;br&gt;节&lt;/font&gt;" style="text;html=1;align=center;verticalAlign=middle;resizable=0;points=[];autosize=1;fillColor=#f8cecc;strokeColor=#b85450;" parent="1" vertex="1">
          <mxGeometry x="2188" y="624.5" width="40" height="118" as="geometry" />
        </mxCell>
        <mxCell id="6ESn1KodmGU27KJJrDq7-104" style="edgeStyle=orthogonalEdgeStyle;rounded=0;orthogonalLoop=1;jettySize=auto;html=1;" edge="1" parent="1" source="6ESn1KodmGU27KJJrDq7-48">
          <mxGeometry relative="1" as="geometry">
            <mxPoint x="275.5" y="694.3968157087054" as="targetPoint" />
          </mxGeometry>
        </mxCell>
        <mxCell id="6ESn1KodmGU27KJJrDq7-48" value="消防、供电部门等政府机构" style="rounded=0;whiteSpace=wrap;html=1;" vertex="1" parent="1">
          <mxGeometry x="171" y="622" width="209" height="36" as="geometry" />
        </mxCell>
        <mxCell id="6ESn1KodmGU27KJJrDq7-55" style="edgeStyle=orthogonalEdgeStyle;rounded=0;orthogonalLoop=1;jettySize=auto;html=1;exitX=0.5;exitY=1;exitDx=0;exitDy=0;" edge="1" parent="1">
          <mxGeometry relative="1" as="geometry">
            <mxPoint x="276.0000000000002" y="1009" as="sourcePoint" />
            <mxPoint x="276.0000000000002" y="1009" as="targetPoint" />
          </mxGeometry>
        </mxCell>
        <mxCell id="6ESn1KodmGU27KJJrDq7-106" style="edgeStyle=orthogonalEdgeStyle;rounded=0;orthogonalLoop=1;jettySize=auto;html=1;" edge="1" parent="1" source="6ESn1KodmGU27KJJrDq7-56">
          <mxGeometry relative="1" as="geometry">
            <mxPoint x="275.5" y="830.9048200334821" as="targetPoint" />
          </mxGeometry>
        </mxCell>
        <mxCell id="6ESn1KodmGU27KJJrDq7-56" value="相关部门派遣技术人员现场核查" style="rounded=0;whiteSpace=wrap;html=1;" vertex="1" parent="1">
          <mxGeometry x="169.5" y="765" width="212" height="34" as="geometry" />
        </mxCell>
        <mxCell id="6ESn1KodmGU27KJJrDq7-126" style="edgeStyle=orthogonalEdgeStyle;rounded=0;orthogonalLoop=1;jettySize=auto;html=1;entryX=0.472;entryY=0.05;entryDx=0;entryDy=0;entryPerimeter=0;" edge="1" parent="1" source="6ESn1KodmGU27KJJrDq7-70" target="jyO5-WvrYrrkGgKPPHPB-35">
          <mxGeometry relative="1" as="geometry" />
        </mxCell>
        <mxCell id="6ESn1KodmGU27KJJrDq7-127" value="是" style="edgeLabel;html=1;align=center;verticalAlign=middle;resizable=0;points=[];" vertex="1" connectable="0" parent="6ESn1KodmGU27KJJrDq7-126">
          <mxGeometry x="-0.0525" relative="1" as="geometry">
            <mxPoint as="offset" />
          </mxGeometry>
        </mxCell>
        <mxCell id="6ESn1KodmGU27KJJrDq7-129" style="edgeStyle=orthogonalEdgeStyle;rounded=0;orthogonalLoop=1;jettySize=auto;html=1;entryX=1;entryY=0.5;entryDx=0;entryDy=0;" edge="1" parent="1" source="6ESn1KodmGU27KJJrDq7-70" target="jyO5-WvrYrrkGgKPPHPB-58">
          <mxGeometry relative="1" as="geometry">
            <Array as="points">
              <mxPoint x="654" y="973" />
              <mxPoint x="654" y="1724" />
            </Array>
          </mxGeometry>
        </mxCell>
        <mxCell id="6ESn1KodmGU27KJJrDq7-159" value="否" style="edgeLabel;html=1;align=center;verticalAlign=middle;resizable=0;points=[];" vertex="1" connectable="0" parent="6ESn1KodmGU27KJJrDq7-129">
          <mxGeometry x="-0.9263" relative="1" as="geometry">
            <mxPoint as="offset" />
          </mxGeometry>
        </mxCell>
        <mxCell id="6ESn1KodmGU27KJJrDq7-70" value="是否存在风险" style="rhombus;whiteSpace=wrap;html=1;rounded=0;" vertex="1" parent="1">
          <mxGeometry x="225" y="954.5" width="104" height="37" as="geometry" />
        </mxCell>
        <mxCell id="6ESn1KodmGU27KJJrDq7-154" style="edgeStyle=orthogonalEdgeStyle;rounded=0;orthogonalLoop=1;jettySize=auto;html=1;" edge="1" parent="1" source="6ESn1KodmGU27KJJrDq7-76">
          <mxGeometry relative="1" as="geometry">
            <mxPoint x="283" y="1555" as="targetPoint" />
          </mxGeometry>
        </mxCell>
        <mxCell id="6ESn1KodmGU27KJJrDq7-157" value="否" style="edgeLabel;html=1;align=center;verticalAlign=middle;resizable=0;points=[];" vertex="1" connectable="0" parent="6ESn1KodmGU27KJJrDq7-154">
          <mxGeometry x="-0.2157" y="1" relative="1" as="geometry">
            <mxPoint y="2" as="offset" />
          </mxGeometry>
        </mxCell>
        <mxCell id="6ESn1KodmGU27KJJrDq7-222" style="edgeStyle=orthogonalEdgeStyle;rounded=0;orthogonalLoop=1;jettySize=auto;html=1;entryX=1;entryY=0.5;entryDx=0;entryDy=0;" edge="1" parent="1" source="6ESn1KodmGU27KJJrDq7-76" target="jyO5-WvrYrrkGgKPPHPB-188">
          <mxGeometry relative="1" as="geometry">
            <Array as="points">
              <mxPoint x="414" y="1496" />
              <mxPoint x="414" y="1649" />
            </Array>
          </mxGeometry>
        </mxCell>
        <mxCell id="6ESn1KodmGU27KJJrDq7-223" value="是" style="edgeLabel;html=1;align=center;verticalAlign=middle;resizable=0;points=[];" vertex="1" connectable="0" parent="6ESn1KodmGU27KJJrDq7-222">
          <mxGeometry x="-0.7544" relative="1" as="geometry">
            <mxPoint as="offset" />
          </mxGeometry>
        </mxCell>
        <mxCell id="6ESn1KodmGU27KJJrDq7-76" value="7天内是否整改完成" style="rhombus;whiteSpace=wrap;html=1;rounded=0;" vertex="1" parent="1">
          <mxGeometry x="224" y="1477" width="117" height="37" as="geometry" />
        </mxCell>
        <mxCell id="6ESn1KodmGU27KJJrDq7-224" style="edgeStyle=orthogonalEdgeStyle;rounded=0;orthogonalLoop=1;jettySize=auto;html=1;entryX=0;entryY=0.5;entryDx=0;entryDy=0;" edge="1" parent="1" source="6ESn1KodmGU27KJJrDq7-77" target="6ESn1KodmGU27KJJrDq7-109">
          <mxGeometry relative="1" as="geometry">
            <Array as="points">
              <mxPoint x="156" y="1576" />
              <mxPoint x="156" y="1397" />
            </Array>
          </mxGeometry>
        </mxCell>
        <mxCell id="6ESn1KodmGU27KJJrDq7-77" value="整改监督" style="rounded=0;whiteSpace=wrap;html=1;" vertex="1" parent="1">
          <mxGeometry x="181.5" y="1558" width="218.5" height="35" as="geometry" />
        </mxCell>
        <mxCell id="6ESn1KodmGU27KJJrDq7-122" style="edgeStyle=orthogonalEdgeStyle;rounded=0;orthogonalLoop=1;jettySize=auto;html=1;entryX=0.5;entryY=0;entryDx=0;entryDy=0;" edge="1" parent="1" source="6ESn1KodmGU27KJJrDq7-89" target="6ESn1KodmGU27KJJrDq7-115">
          <mxGeometry relative="1" as="geometry">
            <mxPoint x="498" y="892" as="targetPoint" />
          </mxGeometry>
        </mxCell>
        <mxCell id="6ESn1KodmGU27KJJrDq7-123" value="是" style="edgeLabel;html=1;align=center;verticalAlign=middle;resizable=0;points=[];" vertex="1" connectable="0" parent="6ESn1KodmGU27KJJrDq7-122">
          <mxGeometry x="-0.0657" y="2" relative="1" as="geometry">
            <mxPoint as="offset" />
          </mxGeometry>
        </mxCell>
        <mxCell id="6ESn1KodmGU27KJJrDq7-131" style="edgeStyle=orthogonalEdgeStyle;rounded=0;orthogonalLoop=1;jettySize=auto;html=1;entryX=1;entryY=0.5;entryDx=0;entryDy=0;" edge="1" parent="1" source="6ESn1KodmGU27KJJrDq7-89" target="jyO5-WvrYrrkGgKPPHPB-58">
          <mxGeometry relative="1" as="geometry">
            <Array as="points">
              <mxPoint x="609" y="634" />
              <mxPoint x="609" y="1724" />
            </Array>
          </mxGeometry>
        </mxCell>
        <mxCell id="6ESn1KodmGU27KJJrDq7-132" value="否" style="edgeLabel;html=1;align=center;verticalAlign=middle;resizable=0;points=[];" vertex="1" connectable="0" parent="6ESn1KodmGU27KJJrDq7-131">
          <mxGeometry x="-0.9651" y="1" relative="1" as="geometry">
            <mxPoint as="offset" />
          </mxGeometry>
        </mxCell>
        <mxCell id="6ESn1KodmGU27KJJrDq7-89" value="是否存在风险" style="rhombus;whiteSpace=wrap;html=1;rounded=0;" vertex="1" parent="1">
          <mxGeometry x="453" y="613" width="100" height="42" as="geometry" />
        </mxCell>
        <mxCell id="6ESn1KodmGU27KJJrDq7-105" style="edgeStyle=orthogonalEdgeStyle;rounded=0;orthogonalLoop=1;jettySize=auto;html=1;" edge="1" parent="1" source="6ESn1KodmGU27KJJrDq7-94">
          <mxGeometry relative="1" as="geometry">
            <mxPoint x="275.5" y="763.6032133556548" as="targetPoint" />
          </mxGeometry>
        </mxCell>
        <mxCell id="6ESn1KodmGU27KJJrDq7-94" value="工作人员接报风险信息" style="rounded=0;whiteSpace=wrap;html=1;" vertex="1" parent="1">
          <mxGeometry x="169.5" y="697" width="212" height="34" as="geometry" />
        </mxCell>
        <mxCell id="6ESn1KodmGU27KJJrDq7-210" style="edgeStyle=orthogonalEdgeStyle;rounded=0;orthogonalLoop=1;jettySize=auto;html=1;entryX=0.5;entryY=0;entryDx=0;entryDy=0;" edge="1" parent="1" source="6ESn1KodmGU27KJJrDq7-96" target="jyO5-WvrYrrkGgKPPHPB-43">
          <mxGeometry relative="1" as="geometry" />
        </mxCell>
        <mxCell id="6ESn1KodmGU27KJJrDq7-96" value="相关部门发布预警信息" style="rounded=0;whiteSpace=wrap;html=1;" vertex="1" parent="1">
          <mxGeometry x="175.5" y="1159" width="212.5" height="33" as="geometry" />
        </mxCell>
        <mxCell id="6ESn1KodmGU27KJJrDq7-108" style="edgeStyle=orthogonalEdgeStyle;rounded=0;orthogonalLoop=1;jettySize=auto;html=1;entryX=0.5;entryY=0;entryDx=0;entryDy=0;" edge="1" parent="1" source="6ESn1KodmGU27KJJrDq7-97" target="6ESn1KodmGU27KJJrDq7-70">
          <mxGeometry relative="1" as="geometry" />
        </mxCell>
        <mxCell id="6ESn1KodmGU27KJJrDq7-97" value="会商研判" style="rounded=0;whiteSpace=wrap;html=1;" vertex="1" parent="1">
          <mxGeometry x="171" y="897" width="212" height="34" as="geometry" />
        </mxCell>
        <mxCell id="6ESn1KodmGU27KJJrDq7-107" style="edgeStyle=orthogonalEdgeStyle;rounded=0;orthogonalLoop=1;jettySize=auto;html=1;" edge="1" parent="1" source="6ESn1KodmGU27KJJrDq7-99">
          <mxGeometry relative="1" as="geometry">
            <mxPoint x="277" y="896.3016357421875" as="targetPoint" />
          </mxGeometry>
        </mxCell>
        <mxCell id="6ESn1KodmGU27KJJrDq7-99" value="技术人员采集现场数据" style="rounded=0;whiteSpace=wrap;html=1;" vertex="1" parent="1">
          <mxGeometry x="171" y="831" width="212" height="34" as="geometry" />
        </mxCell>
        <mxCell id="6ESn1KodmGU27KJJrDq7-103" value="上报" style="text;html=1;align=center;verticalAlign=middle;resizable=0;points=[];autosize=1;strokeColor=none;fillColor=none;" vertex="1" parent="1">
          <mxGeometry x="272" y="596" width="42" height="26" as="geometry" />
        </mxCell>
        <mxCell id="6ESn1KodmGU27KJJrDq7-218" style="edgeStyle=orthogonalEdgeStyle;rounded=0;orthogonalLoop=1;jettySize=auto;html=1;" edge="1" parent="1" source="6ESn1KodmGU27KJJrDq7-109">
          <mxGeometry relative="1" as="geometry">
            <mxPoint x="281.9999999999998" y="1474.1227641858554" as="targetPoint" />
          </mxGeometry>
        </mxCell>
        <mxCell id="6ESn1KodmGU27KJJrDq7-109" value="企业风险整改" style="rounded=0;whiteSpace=wrap;html=1;" vertex="1" parent="1">
          <mxGeometry x="175.5" y="1379" width="213" height="36" as="geometry" />
        </mxCell>
        <mxCell id="6ESn1KodmGU27KJJrDq7-161" style="edgeStyle=orthogonalEdgeStyle;rounded=0;orthogonalLoop=1;jettySize=auto;html=1;entryX=0.5;entryY=0;entryDx=0;entryDy=0;" edge="1" parent="1" source="6ESn1KodmGU27KJJrDq7-113" target="jyO5-WvrYrrkGgKPPHPB-58">
          <mxGeometry relative="1" as="geometry" />
        </mxCell>
        <mxCell id="6ESn1KodmGU27KJJrDq7-113" value="企业自行整改" style="rounded=0;whiteSpace=wrap;html=1;" vertex="1" parent="1">
          <mxGeometry x="433" y="1254" width="158" height="34" as="geometry" />
        </mxCell>
        <mxCell id="6ESn1KodmGU27KJJrDq7-162" style="edgeStyle=orthogonalEdgeStyle;rounded=0;orthogonalLoop=1;jettySize=auto;html=1;entryX=0.437;entryY=0.049;entryDx=0;entryDy=0;entryPerimeter=0;" edge="1" parent="1" source="6ESn1KodmGU27KJJrDq7-115" target="6ESn1KodmGU27KJJrDq7-113">
          <mxGeometry relative="1" as="geometry" />
        </mxCell>
        <mxCell id="6ESn1KodmGU27KJJrDq7-115" value="企业内部调查" style="rounded=0;whiteSpace=wrap;html=1;" vertex="1" parent="1">
          <mxGeometry x="419" y="824" width="168" height="34" as="geometry" />
        </mxCell>
        <mxCell id="6ESn1KodmGU27KJJrDq7-183" style="edgeStyle=orthogonalEdgeStyle;rounded=0;orthogonalLoop=1;jettySize=auto;html=1;entryX=0.5;entryY=0;entryDx=0;entryDy=0;" edge="1" parent="1" source="6ESn1KodmGU27KJJrDq7-184">
          <mxGeometry relative="1" as="geometry">
            <mxPoint x="793.0000000000005" y="1372" as="targetPoint" />
          </mxGeometry>
        </mxCell>
        <mxCell id="6ESn1KodmGU27KJJrDq7-184" value="牵头部门下发整改通知书" style="rounded=0;whiteSpace=wrap;html=1;" vertex="1" parent="1">
          <mxGeometry x="686.5" y="1277" width="213" height="36" as="geometry" />
        </mxCell>
        <mxCell id="6ESn1KodmGU27KJJrDq7-186" style="edgeStyle=orthogonalEdgeStyle;rounded=0;orthogonalLoop=1;jettySize=auto;html=1;exitX=0.5;exitY=1;exitDx=0;exitDy=0;" edge="1" parent="1">
          <mxGeometry relative="1" as="geometry">
            <mxPoint x="788.0000000000002" y="1015" as="sourcePoint" />
            <mxPoint x="788.0000000000002" y="1015" as="targetPoint" />
          </mxGeometry>
        </mxCell>
        <mxCell id="6ESn1KodmGU27KJJrDq7-187" style="edgeStyle=orthogonalEdgeStyle;rounded=0;orthogonalLoop=1;jettySize=auto;html=1;entryX=0.472;entryY=0.05;entryDx=0;entryDy=0;entryPerimeter=0;" edge="1" parent="1" source="6ESn1KodmGU27KJJrDq7-190">
          <mxGeometry relative="1" as="geometry">
            <mxPoint x="788.5920000000001" y="1052.15" as="targetPoint" />
          </mxGeometry>
        </mxCell>
        <mxCell id="6ESn1KodmGU27KJJrDq7-188" value="是" style="edgeLabel;html=1;align=center;verticalAlign=middle;resizable=0;points=[];" vertex="1" connectable="0" parent="6ESn1KodmGU27KJJrDq7-187">
          <mxGeometry x="-0.0525" relative="1" as="geometry">
            <mxPoint as="offset" />
          </mxGeometry>
        </mxCell>
        <mxCell id="6ESn1KodmGU27KJJrDq7-190" value="是否存在风险" style="rhombus;whiteSpace=wrap;html=1;rounded=0;" vertex="1" parent="1">
          <mxGeometry x="737" y="960.5" width="104" height="37" as="geometry" />
        </mxCell>
        <mxCell id="6ESn1KodmGU27KJJrDq7-206" style="edgeStyle=orthogonalEdgeStyle;rounded=0;orthogonalLoop=1;jettySize=auto;html=1;entryX=0.5;entryY=0;entryDx=0;entryDy=0;" edge="1" parent="1" target="6ESn1KodmGU27KJJrDq7-184">
          <mxGeometry relative="1" as="geometry">
            <mxPoint x="792.6923076923076" y="1192.0000000000002" as="sourcePoint" />
          </mxGeometry>
        </mxCell>
        <mxCell id="6ESn1KodmGU27KJJrDq7-199" style="edgeStyle=orthogonalEdgeStyle;rounded=0;orthogonalLoop=1;jettySize=auto;html=1;entryX=0.5;entryY=0;entryDx=0;entryDy=0;" edge="1" parent="1" source="6ESn1KodmGU27KJJrDq7-200" target="6ESn1KodmGU27KJJrDq7-190">
          <mxGeometry relative="1" as="geometry" />
        </mxCell>
        <mxCell id="6ESn1KodmGU27KJJrDq7-200" value="会商研判" style="rounded=0;whiteSpace=wrap;html=1;" vertex="1" parent="1">
          <mxGeometry x="683" y="903" width="212" height="34" as="geometry" />
        </mxCell>
        <mxCell id="6ESn1KodmGU27KJJrDq7-204" value="相关部门制定预警信息" style="rounded=0;whiteSpace=wrap;html=1;" vertex="1" parent="1">
          <mxGeometry x="176.5" y="1100" width="212" height="34" as="geometry" />
        </mxCell>
        <mxCell id="6ESn1KodmGU27KJJrDq7-207" style="edgeStyle=orthogonalEdgeStyle;rounded=0;orthogonalLoop=1;jettySize=auto;html=1;" edge="1" parent="1">
          <mxGeometry relative="1" as="geometry">
            <mxPoint x="280.23" y="1099.4968157087055" as="targetPoint" />
            <mxPoint x="280.5" y="1077.5" as="sourcePoint" />
          </mxGeometry>
        </mxCell>
        <mxCell id="6ESn1KodmGU27KJJrDq7-208" style="edgeStyle=orthogonalEdgeStyle;rounded=0;orthogonalLoop=1;jettySize=auto;html=1;" edge="1" parent="1">
          <mxGeometry relative="1" as="geometry">
            <mxPoint x="280.23" y="1155.9968157087055" as="targetPoint" />
            <mxPoint x="280.5" y="1134" as="sourcePoint" />
          </mxGeometry>
        </mxCell>
        <mxCell id="6ESn1KodmGU27KJJrDq7-211" value="主管部门评估风险的严重性" style="rounded=0;whiteSpace=wrap;html=1;" vertex="1" parent="1">
          <mxGeometry x="684.5" y="1052" width="211" height="33" as="geometry" />
        </mxCell>
        <mxCell id="6ESn1KodmGU27KJJrDq7-212" value="相关部门发布预警信息" style="rounded=0;whiteSpace=wrap;html=1;" vertex="1" parent="1">
          <mxGeometry x="683" y="1166.5" width="212.5" height="33" as="geometry" />
        </mxCell>
        <mxCell id="6ESn1KodmGU27KJJrDq7-213" value="相关部门制定预警信息" style="rounded=0;whiteSpace=wrap;html=1;" vertex="1" parent="1">
          <mxGeometry x="684" y="1107.5" width="212" height="34" as="geometry" />
        </mxCell>
        <mxCell id="6ESn1KodmGU27KJJrDq7-214" style="edgeStyle=orthogonalEdgeStyle;rounded=0;orthogonalLoop=1;jettySize=auto;html=1;" edge="1" parent="1">
          <mxGeometry relative="1" as="geometry">
            <mxPoint x="787.73" y="1106.9968157087055" as="targetPoint" />
            <mxPoint x="788" y="1085" as="sourcePoint" />
          </mxGeometry>
        </mxCell>
        <mxCell id="6ESn1KodmGU27KJJrDq7-215" style="edgeStyle=orthogonalEdgeStyle;rounded=0;orthogonalLoop=1;jettySize=auto;html=1;" edge="1" parent="1">
          <mxGeometry relative="1" as="geometry">
            <mxPoint x="787.73" y="1163.4968157087055" as="targetPoint" />
            <mxPoint x="788" y="1141.5" as="sourcePoint" />
          </mxGeometry>
        </mxCell>
        <mxCell id="6ESn1KodmGU27KJJrDq7-248" style="edgeStyle=orthogonalEdgeStyle;rounded=0;orthogonalLoop=1;jettySize=auto;html=1;entryX=1;entryY=0.5;entryDx=0;entryDy=0;" edge="1" parent="1" source="6ESn1KodmGU27KJJrDq7-238" target="jyO5-WvrYrrkGgKPPHPB-58">
          <mxGeometry relative="1" as="geometry">
            <Array as="points">
              <mxPoint x="794" y="1724" />
            </Array>
          </mxGeometry>
        </mxCell>
        <mxCell id="6ESn1KodmGU27KJJrDq7-238" value="总结说明" style="rounded=0;whiteSpace=wrap;html=1;" vertex="1" parent="1">
          <mxGeometry x="684.95" y="1627" width="217" height="30" as="geometry" />
        </mxCell>
        <mxCell id="6ESn1KodmGU27KJJrDq7-239" style="edgeStyle=orthogonalEdgeStyle;rounded=0;orthogonalLoop=1;jettySize=auto;html=1;" edge="1" parent="1" source="6ESn1KodmGU27KJJrDq7-243">
          <mxGeometry relative="1" as="geometry">
            <mxPoint x="790.95" y="1548" as="targetPoint" />
          </mxGeometry>
        </mxCell>
        <mxCell id="6ESn1KodmGU27KJJrDq7-240" value="否" style="edgeLabel;html=1;align=center;verticalAlign=middle;resizable=0;points=[];" vertex="1" connectable="0" parent="6ESn1KodmGU27KJJrDq7-239">
          <mxGeometry x="-0.2157" y="1" relative="1" as="geometry">
            <mxPoint y="2" as="offset" />
          </mxGeometry>
        </mxCell>
        <mxCell id="6ESn1KodmGU27KJJrDq7-241" style="edgeStyle=orthogonalEdgeStyle;rounded=0;orthogonalLoop=1;jettySize=auto;html=1;entryX=1;entryY=0.5;entryDx=0;entryDy=0;" edge="1" parent="1" source="6ESn1KodmGU27KJJrDq7-243" target="6ESn1KodmGU27KJJrDq7-238">
          <mxGeometry relative="1" as="geometry">
            <Array as="points">
              <mxPoint x="921.95" y="1489" />
              <mxPoint x="921.95" y="1642" />
            </Array>
          </mxGeometry>
        </mxCell>
        <mxCell id="6ESn1KodmGU27KJJrDq7-242" value="是" style="edgeLabel;html=1;align=center;verticalAlign=middle;resizable=0;points=[];" vertex="1" connectable="0" parent="6ESn1KodmGU27KJJrDq7-241">
          <mxGeometry x="-0.7544" relative="1" as="geometry">
            <mxPoint as="offset" />
          </mxGeometry>
        </mxCell>
        <mxCell id="6ESn1KodmGU27KJJrDq7-243" value="7天内是否整改完成" style="rhombus;whiteSpace=wrap;html=1;rounded=0;" vertex="1" parent="1">
          <mxGeometry x="731.95" y="1470" width="117" height="37" as="geometry" />
        </mxCell>
        <mxCell id="6ESn1KodmGU27KJJrDq7-244" style="edgeStyle=orthogonalEdgeStyle;rounded=0;orthogonalLoop=1;jettySize=auto;html=1;entryX=0;entryY=0.5;entryDx=0;entryDy=0;" edge="1" parent="1" source="6ESn1KodmGU27KJJrDq7-245" target="6ESn1KodmGU27KJJrDq7-247">
          <mxGeometry relative="1" as="geometry">
            <Array as="points">
              <mxPoint x="663.95" y="1569" />
              <mxPoint x="663.95" y="1390" />
            </Array>
          </mxGeometry>
        </mxCell>
        <mxCell id="6ESn1KodmGU27KJJrDq7-245" value="整改监督" style="rounded=0;whiteSpace=wrap;html=1;" vertex="1" parent="1">
          <mxGeometry x="689.45" y="1551" width="218.5" height="35" as="geometry" />
        </mxCell>
        <mxCell id="6ESn1KodmGU27KJJrDq7-246" style="edgeStyle=orthogonalEdgeStyle;rounded=0;orthogonalLoop=1;jettySize=auto;html=1;" edge="1" parent="1" source="6ESn1KodmGU27KJJrDq7-247">
          <mxGeometry relative="1" as="geometry">
            <mxPoint x="789.9499999999998" y="1467.1227641858554" as="targetPoint" />
          </mxGeometry>
        </mxCell>
        <mxCell id="6ESn1KodmGU27KJJrDq7-247" value="企业风险整改" style="rounded=0;whiteSpace=wrap;html=1;" vertex="1" parent="1">
          <mxGeometry x="683.45" y="1372" width="213" height="36" as="geometry" />
        </mxCell>
        <mxCell id="6ESn1KodmGU27KJJrDq7-249" style="edgeStyle=orthogonalEdgeStyle;rounded=0;orthogonalLoop=1;jettySize=auto;html=1;entryX=0.5;entryY=0;entryDx=0;entryDy=0;" edge="1" parent="1" source="6ESn1KodmGU27KJJrDq7-250">
          <mxGeometry relative="1" as="geometry">
            <mxPoint x="1048.0500000000004" y="1372" as="targetPoint" />
          </mxGeometry>
        </mxCell>
        <mxCell id="6ESn1KodmGU27KJJrDq7-250" value="牵头部门下发整改通知书" style="rounded=0;whiteSpace=wrap;html=1;" vertex="1" parent="1">
          <mxGeometry x="941.55" y="1277" width="213" height="36" as="geometry" />
        </mxCell>
        <mxCell id="6ESn1KodmGU27KJJrDq7-251" style="edgeStyle=orthogonalEdgeStyle;rounded=0;orthogonalLoop=1;jettySize=auto;html=1;exitX=0.5;exitY=1;exitDx=0;exitDy=0;" edge="1" parent="1">
          <mxGeometry relative="1" as="geometry">
            <mxPoint x="1043.0500000000002" y="1015" as="sourcePoint" />
            <mxPoint x="1043.0500000000002" y="1015" as="targetPoint" />
          </mxGeometry>
        </mxCell>
        <mxCell id="6ESn1KodmGU27KJJrDq7-252" style="edgeStyle=orthogonalEdgeStyle;rounded=0;orthogonalLoop=1;jettySize=auto;html=1;entryX=0.472;entryY=0.05;entryDx=0;entryDy=0;entryPerimeter=0;" edge="1" parent="1" source="6ESn1KodmGU27KJJrDq7-254">
          <mxGeometry relative="1" as="geometry">
            <mxPoint x="1043.642" y="1052.15" as="targetPoint" />
          </mxGeometry>
        </mxCell>
        <mxCell id="6ESn1KodmGU27KJJrDq7-253" value="是" style="edgeLabel;html=1;align=center;verticalAlign=middle;resizable=0;points=[];" vertex="1" connectable="0" parent="6ESn1KodmGU27KJJrDq7-252">
          <mxGeometry x="-0.0525" relative="1" as="geometry">
            <mxPoint as="offset" />
          </mxGeometry>
        </mxCell>
        <mxCell id="6ESn1KodmGU27KJJrDq7-254" value="是否存在风险" style="rhombus;whiteSpace=wrap;html=1;rounded=0;" vertex="1" parent="1">
          <mxGeometry x="992.05" y="960.5" width="104" height="37" as="geometry" />
        </mxCell>
        <mxCell id="6ESn1KodmGU27KJJrDq7-255" style="edgeStyle=orthogonalEdgeStyle;rounded=0;orthogonalLoop=1;jettySize=auto;html=1;entryX=0.5;entryY=0;entryDx=0;entryDy=0;" edge="1" parent="1" target="6ESn1KodmGU27KJJrDq7-250">
          <mxGeometry relative="1" as="geometry">
            <mxPoint x="1047.7423076923076" y="1192.0000000000002" as="sourcePoint" />
          </mxGeometry>
        </mxCell>
        <mxCell id="6ESn1KodmGU27KJJrDq7-256" style="edgeStyle=orthogonalEdgeStyle;rounded=0;orthogonalLoop=1;jettySize=auto;html=1;entryX=0.5;entryY=0;entryDx=0;entryDy=0;" edge="1" parent="1" source="6ESn1KodmGU27KJJrDq7-257" target="6ESn1KodmGU27KJJrDq7-254">
          <mxGeometry relative="1" as="geometry" />
        </mxCell>
        <mxCell id="6ESn1KodmGU27KJJrDq7-257" value="会商研判" style="rounded=0;whiteSpace=wrap;html=1;" vertex="1" parent="1">
          <mxGeometry x="938.05" y="903" width="212" height="34" as="geometry" />
        </mxCell>
        <mxCell id="6ESn1KodmGU27KJJrDq7-258" value="主管部门评估风险的严重性" style="rounded=0;whiteSpace=wrap;html=1;" vertex="1" parent="1">
          <mxGeometry x="939.55" y="1052" width="211" height="33" as="geometry" />
        </mxCell>
        <mxCell id="6ESn1KodmGU27KJJrDq7-259" value="相关部门发布预警信息" style="rounded=0;whiteSpace=wrap;html=1;" vertex="1" parent="1">
          <mxGeometry x="938.05" y="1166.5" width="212.5" height="33" as="geometry" />
        </mxCell>
        <mxCell id="6ESn1KodmGU27KJJrDq7-260" value="相关部门制定预警信息" style="rounded=0;whiteSpace=wrap;html=1;" vertex="1" parent="1">
          <mxGeometry x="939.05" y="1107.5" width="212" height="34" as="geometry" />
        </mxCell>
        <mxCell id="6ESn1KodmGU27KJJrDq7-261" style="edgeStyle=orthogonalEdgeStyle;rounded=0;orthogonalLoop=1;jettySize=auto;html=1;" edge="1" parent="1">
          <mxGeometry relative="1" as="geometry">
            <mxPoint x="1042.78" y="1106.9968157087055" as="targetPoint" />
            <mxPoint x="1043.05" y="1085" as="sourcePoint" />
          </mxGeometry>
        </mxCell>
        <mxCell id="6ESn1KodmGU27KJJrDq7-262" style="edgeStyle=orthogonalEdgeStyle;rounded=0;orthogonalLoop=1;jettySize=auto;html=1;" edge="1" parent="1">
          <mxGeometry relative="1" as="geometry">
            <mxPoint x="1042.78" y="1163.4968157087055" as="targetPoint" />
            <mxPoint x="1043.05" y="1141.5" as="sourcePoint" />
          </mxGeometry>
        </mxCell>
        <mxCell id="6ESn1KodmGU27KJJrDq7-274" style="edgeStyle=orthogonalEdgeStyle;rounded=0;orthogonalLoop=1;jettySize=auto;html=1;entryX=1;entryY=0.5;entryDx=0;entryDy=0;" edge="1" parent="1" source="6ESn1KodmGU27KJJrDq7-263" target="jyO5-WvrYrrkGgKPPHPB-58">
          <mxGeometry relative="1" as="geometry">
            <Array as="points">
              <mxPoint x="1048" y="1724" />
            </Array>
          </mxGeometry>
        </mxCell>
        <mxCell id="6ESn1KodmGU27KJJrDq7-263" value="总结说明" style="rounded=0;whiteSpace=wrap;html=1;" vertex="1" parent="1">
          <mxGeometry x="940" y="1627" width="217" height="30" as="geometry" />
        </mxCell>
        <mxCell id="6ESn1KodmGU27KJJrDq7-264" style="edgeStyle=orthogonalEdgeStyle;rounded=0;orthogonalLoop=1;jettySize=auto;html=1;" edge="1" parent="1" source="6ESn1KodmGU27KJJrDq7-268">
          <mxGeometry relative="1" as="geometry">
            <mxPoint x="1046" y="1548" as="targetPoint" />
          </mxGeometry>
        </mxCell>
        <mxCell id="6ESn1KodmGU27KJJrDq7-265" value="否" style="edgeLabel;html=1;align=center;verticalAlign=middle;resizable=0;points=[];" vertex="1" connectable="0" parent="6ESn1KodmGU27KJJrDq7-264">
          <mxGeometry x="-0.2157" y="1" relative="1" as="geometry">
            <mxPoint y="2" as="offset" />
          </mxGeometry>
        </mxCell>
        <mxCell id="6ESn1KodmGU27KJJrDq7-266" style="edgeStyle=orthogonalEdgeStyle;rounded=0;orthogonalLoop=1;jettySize=auto;html=1;entryX=1;entryY=0.5;entryDx=0;entryDy=0;" edge="1" parent="1" source="6ESn1KodmGU27KJJrDq7-268" target="6ESn1KodmGU27KJJrDq7-263">
          <mxGeometry relative="1" as="geometry">
            <Array as="points">
              <mxPoint x="1177" y="1489" />
              <mxPoint x="1177" y="1642" />
            </Array>
          </mxGeometry>
        </mxCell>
        <mxCell id="6ESn1KodmGU27KJJrDq7-267" value="是" style="edgeLabel;html=1;align=center;verticalAlign=middle;resizable=0;points=[];" vertex="1" connectable="0" parent="6ESn1KodmGU27KJJrDq7-266">
          <mxGeometry x="-0.7544" relative="1" as="geometry">
            <mxPoint as="offset" />
          </mxGeometry>
        </mxCell>
        <mxCell id="6ESn1KodmGU27KJJrDq7-268" value="7天内是否整改完成" style="rhombus;whiteSpace=wrap;html=1;rounded=0;" vertex="1" parent="1">
          <mxGeometry x="987" y="1470" width="117" height="37" as="geometry" />
        </mxCell>
        <mxCell id="6ESn1KodmGU27KJJrDq7-269" style="edgeStyle=orthogonalEdgeStyle;rounded=0;orthogonalLoop=1;jettySize=auto;html=1;entryX=0;entryY=0.5;entryDx=0;entryDy=0;" edge="1" parent="1" source="6ESn1KodmGU27KJJrDq7-270" target="6ESn1KodmGU27KJJrDq7-272">
          <mxGeometry relative="1" as="geometry">
            <Array as="points">
              <mxPoint x="925" y="1568" />
              <mxPoint x="925" y="1390" />
            </Array>
          </mxGeometry>
        </mxCell>
        <mxCell id="6ESn1KodmGU27KJJrDq7-270" value="上报县政府整改监督" style="rounded=0;whiteSpace=wrap;html=1;" vertex="1" parent="1">
          <mxGeometry x="944.5" y="1551" width="218.5" height="35" as="geometry" />
        </mxCell>
        <mxCell id="6ESn1KodmGU27KJJrDq7-271" style="edgeStyle=orthogonalEdgeStyle;rounded=0;orthogonalLoop=1;jettySize=auto;html=1;" edge="1" parent="1" source="6ESn1KodmGU27KJJrDq7-272">
          <mxGeometry relative="1" as="geometry">
            <mxPoint x="1044.9999999999998" y="1467.1227641858554" as="targetPoint" />
          </mxGeometry>
        </mxCell>
        <mxCell id="6ESn1KodmGU27KJJrDq7-272" value="企业风险整改" style="rounded=0;whiteSpace=wrap;html=1;" vertex="1" parent="1">
          <mxGeometry x="938.5" y="1372" width="213" height="36" as="geometry" />
        </mxCell>
        <mxCell id="6ESn1KodmGU27KJJrDq7-275" style="edgeStyle=orthogonalEdgeStyle;rounded=0;orthogonalLoop=1;jettySize=auto;html=1;entryX=0.5;entryY=0;entryDx=0;entryDy=0;" edge="1" parent="1" target="6ESn1KodmGU27KJJrDq7-89">
          <mxGeometry relative="1" as="geometry">
            <mxPoint x="502.97" y="609.38" as="targetPoint" />
            <mxPoint x="502.47" y="592.38" as="sourcePoint" />
          </mxGeometry>
        </mxCell>
      </root>
    </mxGraphModel>
  </diagram>
</mxfile>
